<svg width="40" height="41" viewBox="0 0 40 41" fill="none" xmlns="http://www.w3.org/2000/svg">
<mask id="mask0_10_55" style="mask-type:alpha" maskUnits="userSpaceOnUse" x="0" y="0" width="40" height="41">
<rect y="0.5" width="40" height="40" fill="#D9D9D9"/>
</mask>
<g mask="url(#mask0_10_55)">
<path d="M19.2637 24.7637L12.8612 18.3887C12.7962 18.324 12.7429 18.2499 12.7012 18.1662C12.6596 18.0826 12.6387 17.9931 12.6387 17.8975C12.6387 17.7067 12.7025 17.5418 12.83 17.4029C12.9572 17.264 13.125 17.1946 13.3333 17.1946H26.6667C26.875 17.1946 27.0428 17.2653 27.17 17.4067C27.2975 17.5481 27.3612 17.7131 27.3612 17.9017C27.3612 17.9486 27.2871 18.111 27.1387 18.3887L20.7362 24.7637C20.6343 24.8657 20.5225 24.9444 20.4008 25C20.2794 25.0556 20.1458 25.0833 20 25.0833C19.8542 25.0833 19.7205 25.0556 19.5992 25C19.4775 24.9444 19.3657 24.8657 19.2637 24.7637Z" fill="#333D4B"/>
</g>
</svg>
