<svg width="25" height="24" viewBox="0 0 25 24" fill="none" xmlns="http://www.w3.org/2000/svg">
<mask id="mask0_5_268" style="mask-type:alpha" maskUnits="userSpaceOnUse" x="0" y="0" width="25" height="24">
<rect x="0.400024" width="24" height="24" fill="#D9D9D9"/>
</mask>
<g mask="url(#mask0_5_268)">
<path d="M12.4 21C9.88336 21 7.75419 20.1292 6.01252 18.3875C4.27086 16.6458 3.40002 14.5167 3.40002 12C3.40002 9.7 4.15002 7.70417 5.65002 6.0125C7.15002 4.32083 9.06669 3.33333 11.4 3.05C11.6167 3.01667 11.8084 3.04583 11.975 3.1375C12.1417 3.22917 12.275 3.35 12.375 3.5C12.475 3.65 12.5292 3.825 12.5375 4.025C12.5459 4.225 12.4834 4.41667 12.35 4.6C12.0667 5.03333 11.8542 5.49167 11.7125 5.975C11.5709 6.45833 11.5 6.96667 11.5 7.5C11.5 9 12.025 10.275 13.075 11.325C14.125 12.375 15.4 12.9 16.9 12.9C17.4167 12.9 17.9292 12.825 18.4375 12.675C18.9459 12.525 19.4 12.3167 19.8 12.05C19.9834 11.9333 20.1709 11.8792 20.3625 11.8875C20.5542 11.8958 20.725 11.9417 20.875 12.025C21.0417 12.1083 21.1709 12.2333 21.2625 12.4C21.3542 12.5667 21.3834 12.7667 21.35 13C21.1167 15.3 20.1375 17.2083 18.4125 18.725C16.6875 20.2417 14.6834 21 12.4 21Z" fill="#333D4B"/>
</g>
</svg>
