<svg width="25" height="24" viewBox="0 0 25 24" fill="none" xmlns="http://www.w3.org/2000/svg">
<path fill-rule="evenodd" clip-rule="evenodd" d="M12.4 2.625C7.10519 2.625 2.81665 6.91354 2.81665 12.2083C2.81665 16.449 5.55988 20.0307 9.36925 21.3005C9.84842 21.3844 10.0281 21.0969 10.0281 20.8453C10.0281 20.6177 10.0161 19.863 10.0161 19.0604C7.60832 19.5036 6.9854 18.4734 6.79373 17.9344C6.68592 17.6589 6.21873 16.8083 5.81144 16.5807C5.47603 16.401 4.99686 15.9578 5.79946 15.9458C6.55415 15.9339 7.09321 16.6406 7.2729 16.9281C8.1354 18.3776 9.51301 17.9703 10.064 17.7187C10.1479 17.0958 10.3995 16.6766 10.675 16.437C8.54269 16.1974 6.31457 15.3708 6.31457 11.7052C6.31457 10.663 6.68592 9.80052 7.29686 9.12969C7.20103 8.8901 6.86561 7.90781 7.39269 6.5901C7.39269 6.5901 8.1953 6.33854 10.0281 7.5724C10.7948 7.35677 11.6094 7.24896 12.4239 7.24896C13.2385 7.24896 14.0531 7.35677 14.8198 7.5724C16.6526 6.32656 17.4552 6.5901 17.4552 6.5901C17.9823 7.90781 17.6469 8.8901 17.551 9.12969C18.162 9.80052 18.5333 10.651 18.5333 11.7052C18.5333 15.3828 16.2932 16.1974 14.1609 16.437C14.5083 16.7365 14.8078 17.3115 14.8078 18.2099C14.8078 19.4917 14.7958 20.5219 14.7958 20.8453C14.7958 21.0969 14.9755 21.3964 15.4547 21.3005C19.2401 20.0307 21.9833 16.437 21.9833 12.2083C21.9833 6.91354 17.6948 2.625 12.4 2.625Z" fill="#333D4B"/>
</svg>
